<svg xmlns="http://www.w3.org/2000/svg" xmlns:svg="http://www.w3.org/2000/svg" id="Layer_1" width="200" height="200" x="0" y="0" version="1.1" viewBox="0 0 200 200" xml:space="preserve"><metadata id="metadata33"/><style id="style2" type="text/css">.st0{fill:red}.st1{fill:#fff}</style><g id="g8" transform="matrix(1.6474395,0,0,1.6474395,2.0848214e-6,29.983821)"><path style="fill:red" id="path4" d="M 118.9,13.3 C 117.5,8.1 113.4,4 108.2,2.6 98.7,0 60.7,0 60.7,0 60.7,0 22.7,0 13.2,2.5 8.1,3.9 3.9,8.1 2.5,13.3 0,22.8 0,42.5 0,42.5 0,42.5 0,62.3 2.5,71.7 3.9,76.9 8,81 13.2,82.4 22.8,85 60.7,85 60.7,85 c 0,0 38,0 47.5,-2.5 5.2,-1.4 9.3,-5.5 10.7,-10.7 2.5,-9.5 2.5,-29.2 2.5,-29.2 0,0 0.1,-19.8 -2.5,-29.3 z" class="st0"/><polygon style="fill:#fff" id="polygon6" points="80.2 42.5 48.6 24.3 48.6 60.7" class="st1"/></g></svg>